<svg xmlns="http://www.w3.org/2000/svg" width="1312.248" height="283.608" viewBox="0 0 1312.248 283.608">
  <g id="logo" transform="translate(-6833.948 994.808)">
    <path id="Path_1" data-name="Path 1" d="M2080.052,500.812h9.8a8.324,8.324,0,0,1,8.4,8.685,8.09,8.09,0,0,1-8.4,8.4h-9.8Zm18.768,32.213-4.763-7a16.849,16.849,0,0,0,13.165-16.526,16.506,16.506,0,0,0-16.806-16.807h-19.609v53.5h9.244V526.3h3.92l6.723,9.8a17.239,17.239,0,0,0,15.687,10.084h3.643v-7.844H2107.5c-3.362,0-6.442-2.241-8.683-5.322m-12.326,29.691c-23.249,0-40.9-17.647-40.9-41.175s17.647-41.457,40.9-41.457c22.969,0,40.616,17.928,40.616,41.457s-17.647,41.175-40.616,41.175m0-92.155c-29.13,0-50.98,21.849-50.98,50.98,0,28.85,21.85,50.7,50.98,50.7,28.852,0,50.7-21.85,50.7-50.7,0-29.132-21.848-50.98-50.7-50.98M1885.766,747.8c65.936,0,115.984-48.062,115.984-112.013V468.958h-75.866V634.595c0,23.038-17.081,40.118-40.118,40.118s-40.121-17.081-40.121-40.118V468.958H1769.78V635.786c0,63.951,50.048,112.013,115.987,112.013M1751.792,468.958H1544.051v71.5h65.935V743.034h75.869V540.457h65.938ZM1427.709,747.8c59.184,0,104.467-36.94,104.467-91.755s-45.68-74.278-86.2-84.606c-20.655-5.164-42.1-11.519-42.1-25.024,0-9.136,9.93-14.7,21.846-14.7,14.3,0,24.628,7.944,24.628,18.668H1528.2c0-49.254-43.693-86.194-101.686-86.194-57.2,0-100.494,35.352-100.494,88.18,0,53.227,44.488,76.265,83.018,85.8,21.052,5.165,45.281,11.519,45.281,25.421,0,9.534-11.518,16.684-25.42,16.684-16.286,0-29-9.931-29-22.243h-77.852c0,50.445,44.883,89.769,105.657,89.769m-240.07-76.265V640.951h96.919v-71.5H1187.64v-29h109.63v-71.5h-185.5V743.034h187.485v-71.5ZM991.378,468.958V609.174L900.814,468.958H824.946V743.034h75.868V602.817l90.564,140.216h75.866V468.958Z" transform="translate(6009.002 -1459)" fill="#fff"/>
  </g>
</svg>
